<?xml version="1.0" encoding="UTF-8"?>
<!DOCTYPE svg PUBLIC "-//W3C//DTD SVG 1.1//EN" "http://www.w3.org/Graphics/SVG/1.1/DTD/svg11.dtd">
<svg xmlns="http://www.w3.org/2000/svg" version="1.1" width="472px" height="202px" style="shape-rendering:geometricPrecision; text-rendering:geometricPrecision; image-rendering:optimizeQuality; fill-rule:evenodd; clip-rule:evenodd" xmlns:xlink="http://www.w3.org/1999/xlink">
<g><path style="opacity:1" fill="#fefefe" d="M -0.5,-0.5 C 156.833,-0.5 314.167,-0.5 471.5,-0.5C 471.5,66.8333 471.5,134.167 471.5,201.5C 314.167,201.5 156.833,201.5 -0.5,201.5C -0.5,134.167 -0.5,66.8333 -0.5,-0.5 Z"/></g>
<g><path style="opacity:1" fill="#242424" d="M 270.5,33.5 C 270.5,32.8333 270.167,32.5 269.5,32.5C 271.388,29.0688 271.888,25.4021 271,21.5C 267.095,25.3508 265.595,30.0175 266.5,35.5C 265.599,34.7095 264.932,33.7095 264.5,32.5C 264.609,27.8366 266.276,23.8366 269.5,20.5C 268.998,19.479 268.332,19.3123 267.5,20C 264.833,22 262.167,24 259.5,26C 260.965,27.7742 262.298,29.6075 263.5,31.5C 262.833,31.5 262.5,31.8333 262.5,32.5C 256.564,22.5405 247.898,17.2072 236.5,16.5C 237.792,18.6666 238.625,20.9999 239,23.5C 242.174,21.3792 245.507,21.0458 249,22.5C 248.828,25.3513 247.661,27.8513 245.5,30C 249.608,31.0265 253.608,32.3599 257.5,34C 259.584,34.6972 261.251,35.8639 262.5,37.5C 261.262,37.81 261.262,38.31 262.5,39C 260.942,39.21 259.609,39.71 258.5,40.5C 245.997,39.0025 240.663,44.3358 242.5,56.5C 242.973,57.9063 243.973,58.573 245.5,58.5C 254.044,62.8394 260.044,60.5061 263.5,51.5C 263.5,52.1667 263.833,52.5 264.5,52.5C 261.097,60.762 255.097,63.9286 246.5,62C 251.697,66.4829 257.031,66.6496 262.5,62.5C 262.5,63.1667 262.833,63.5 263.5,63.5C 257.087,69.0979 250.92,68.7646 245,62.5C 245.019,64.1075 245.185,65.7741 245.5,67.5C 244.833,67.5 244.5,67.8333 244.5,68.5C 243.675,65.6282 242.841,62.6282 242,59.5C 241.333,58.8333 240.667,58.1667 240,57.5C 239.457,60.8678 239.624,64.2011 240.5,67.5C 239.983,69.5095 239.316,70.8429 238.5,71.5C 238.756,67.7307 238.423,64.0641 237.5,60.5C 238.309,58.9724 238.976,57.3057 239.5,55.5C 240.319,52.6946 240.819,49.6946 241,46.5C 241.707,44.9194 242.54,43.4194 243.5,42C 241.975,40.9914 240.308,40.4914 238.5,40.5C 238.293,43.2406 237.293,45.5739 235.5,47.5C 235.5,46.8333 235.167,46.5 234.5,46.5C 237.314,42.0398 237.148,37.7065 234,33.5C 233.148,34.5707 232.315,35.5707 231.5,36.5C 231.5,35.8333 231.167,35.5 230.5,35.5C 230.804,34.8501 231.137,34.1835 231.5,33.5C 226.016,31.1425 222.349,32.8091 220.5,38.5C 221.689,39.4287 223.022,39.762 224.5,39.5C 224.5,40.1667 224.833,40.5 225.5,40.5C 225.082,41.2216 224.416,41.7216 223.5,42C 227.228,45.6801 228.228,49.8468 226.5,54.5C 226.5,53.8333 226.167,53.5 225.5,53.5C 226.655,47.3053 224.322,43.1386 218.5,41C 214.848,40.5014 211.182,40.3347 207.5,40.5C 206.737,39.7321 205.737,39.2321 204.5,39C 205.056,38.6174 205.389,38.1174 205.5,37.5C 206.894,35.2918 208.894,33.7918 211.5,33C 214.957,31.2565 218.623,30.2565 222.5,30C 219.679,27.8587 218.346,25.0254 218.5,21.5C 222.198,21.5524 225.865,21.8857 229.5,22.5C 229.586,20.323 230.253,18.323 231.5,16.5C 228.861,15.6435 226.194,15.8102 223.5,17C 215.757,20.2504 209.757,25.417 205.5,32.5C 205.5,31.8333 205.167,31.5 204.5,31.5C 205.702,29.6075 207.035,27.7742 208.5,26C 205.418,22.6308 201.752,20.6308 197.5,20C 200.359,22.5525 202.026,25.7192 202.5,29.5C 202.167,29.5 201.833,29.5 201.5,29.5C 200.742,26.5365 199.242,23.8698 197,21.5C 195.743,26.8199 196.91,31.4865 200.5,35.5C 200.5,35.8333 200.5,36.1667 200.5,36.5C 198.496,35.3272 196.996,33.6605 196,31.5C 194.878,26.8984 194.378,22.2318 194.5,17.5C 196.527,17.3379 198.527,17.5045 200.5,18C 203.128,20.4655 206.128,22.2988 209.5,23.5C 212.965,21.5967 216.298,19.43 219.5,17C 228.031,12.9034 236.697,12.5701 245.5,16C 249.986,18.338 254.319,20.838 258.5,23.5C 261.937,21.906 265.27,20.0726 268.5,18C 270.134,17.5065 271.801,17.3398 273.5,17.5C 273.946,23.2454 272.946,28.5787 270.5,33.5 Z"/></g>
<g><path style="opacity:1" fill="#e9e9e9" d="M 233.5,16.5 C 237.29,20.5844 237.456,24.9177 234,29.5C 229.528,25.3142 229.361,20.9808 233.5,16.5 Z"/></g>
<g><path style="opacity:1" fill="#eaeaea" d="M 204.5,31.5 C 202.804,35.0224 202.138,34.3558 202.5,29.5C 202.026,25.7192 200.359,22.5525 197.5,20C 201.752,20.6308 205.418,22.6308 208.5,26C 207.035,27.7742 205.702,29.6075 204.5,31.5 Z"/></g>
<g><path style="opacity:1" fill="#eeeeee" d="M 205.5,37.5 C 204.624,37.6309 203.957,37.2975 203.5,36.5C 204.18,35.1401 204.847,33.8068 205.5,32.5C 209.757,25.417 215.757,20.2504 223.5,17C 226.194,15.8102 228.861,15.6435 231.5,16.5C 230.253,18.323 229.586,20.323 229.5,22.5C 225.865,21.8857 222.198,21.5524 218.5,21.5C 218.346,25.0254 219.679,27.8587 222.5,30C 218.623,30.2565 214.957,31.2565 211.5,33C 208.894,33.7918 206.894,35.2918 205.5,37.5 Z"/></g>
<g><path style="opacity:1" fill="#f0f0f0" d="M 262.5,32.5 C 263.909,34.3049 264.409,36.3049 264,38.5C 263.617,37.944 263.117,37.6107 262.5,37.5C 261.251,35.8639 259.584,34.6972 257.5,34C 253.608,32.3599 249.608,31.0265 245.5,30C 247.661,27.8513 248.828,25.3513 249,22.5C 245.507,21.0458 242.174,21.3792 239,23.5C 238.625,20.9999 237.792,18.6666 236.5,16.5C 247.898,17.2072 256.564,22.5405 262.5,32.5 Z"/></g>
<g><path style="opacity:1" fill="#e0e0e0" d="M 201.5,29.5 C 201.795,31.7354 201.461,33.7354 200.5,35.5C 196.91,31.4865 195.743,26.8199 197,21.5C 199.242,23.8698 200.742,26.5365 201.5,29.5 Z"/></g>
<g><path style="opacity:1" fill="#ebebeb" d="M 264.5,32.5 C 263.833,32.5 263.5,32.1667 263.5,31.5C 262.298,29.6075 260.965,27.7742 259.5,26C 262.167,24 264.833,22 267.5,20C 268.332,19.3123 268.998,19.479 269.5,20.5C 266.276,23.8366 264.609,27.8366 264.5,32.5 Z"/></g>
<g><path style="opacity:1" fill="#ebebeb" d="M 269.5,32.5 C 268.833,33.8333 267.833,34.8333 266.5,35.5C 265.595,30.0175 267.095,25.3508 271,21.5C 271.888,25.4021 271.388,29.0688 269.5,32.5 Z"/></g>
<g><path style="opacity:1" fill="#f1f1f1" d="M 220.5,23.5 C 226.033,22.9475 230.033,25.1142 232.5,30C 226.26,31.7165 222.26,29.5499 220.5,23.5 Z"/></g>
<g><path style="opacity:1" fill="#f1f1f1" d="M 240.5,23.5 C 249.041,22.971 249.708,25.1377 242.5,30C 240.167,30.6667 237.833,30.6667 235.5,30C 236.999,27.6721 238.666,25.5054 240.5,23.5 Z"/></g>
<g><path style="opacity:1" fill="#1c1c1c" d="M 201.5,29.5 C 201.833,29.5 202.167,29.5 202.5,29.5C 202.138,34.3558 202.804,35.0224 204.5,31.5C 205.167,31.5 205.5,31.8333 205.5,32.5C 204.847,33.8068 204.18,35.1401 203.5,36.5C 203.957,37.2975 204.624,37.6309 205.5,37.5C 205.389,38.1174 205.056,38.6174 204.5,39C 205.737,39.2321 206.737,39.7321 207.5,40.5C 206.167,40.5 204.833,40.5 203.5,40.5C 205.494,48.8005 210.828,51.9672 219.5,50C 222,51.1667 223.833,53 225,55.5C 225.464,54.9056 225.631,54.2389 225.5,53.5C 226.167,53.5 226.5,53.8333 226.5,54.5C 226.369,55.2389 226.536,55.9056 227,56.5C 229.438,54.5709 231.272,52.2376 232.5,49.5C 230.628,46.417 229.295,43.0837 228.5,39.5C 227.583,40.1272 226.583,40.4606 225.5,40.5C 224.833,40.5 224.5,40.1667 224.5,39.5C 227.198,39.1551 229.198,37.8218 230.5,35.5C 231.167,35.5 231.5,35.8333 231.5,36.5C 229.744,40.7524 230.744,44.0857 234.5,46.5C 235.167,46.5 235.5,46.8333 235.5,47.5C 235.196,48.1499 234.863,48.8165 234.5,49.5C 236.19,51.5193 237.856,53.5193 239.5,55.5C 238.976,57.3057 238.309,58.9724 237.5,60.5C 238.036,57.3354 237.203,54.6688 235,52.5C 234.333,57.5 234.333,62.5 235,67.5C 235.66,69.3237 236.827,70.657 238.5,71.5C 239.316,70.8429 239.983,69.5095 240.5,67.5C 239.658,72.0506 240.992,75.7173 244.5,78.5C 244.5,78.8333 244.5,79.1667 244.5,79.5C 240.869,76.3707 237.369,73.0374 234,69.5C 230.478,72.2659 227.145,75.2659 224,78.5C 223.308,79.4368 223.475,80.1034 224.5,80.5C 223.833,81.1667 223.167,81.8333 222.5,82.5C 220.429,81.0459 218.262,79.7125 216,78.5C 214.72,78.6135 213.887,79.2801 213.5,80.5C 214.624,81.8592 215.958,82.8592 217.5,83.5C 217.5,83.8333 217.5,84.1667 217.5,84.5C 216.292,83.7659 214.959,83.4326 213.5,83.5C 213.5,84.8333 213.5,86.1667 213.5,87.5C 216.607,87.6488 219.607,87.1488 222.5,86C 221.263,85.7679 220.263,85.2679 219.5,84.5C 222.888,83.9694 224.888,85.3027 225.5,88.5C 223.673,89.9319 222.006,91.5986 220.5,93.5C 224.512,94.8866 228.179,94.2199 231.5,91.5C 231.5,91.8333 231.5,92.1667 231.5,92.5C 229.879,94.1172 227.879,95.2838 225.5,96C 230.768,101.737 236.101,101.903 241.5,96.5C 240.099,95.4793 238.765,94.4793 237.5,93.5C 238.167,93.5 238.5,93.1667 238.5,92.5C 241.317,94.4694 244.317,94.8027 247.5,93.5C 245.147,91.4773 242.814,89.4773 240.5,87.5C 242.556,86.3777 243.889,84.7111 244.5,82.5C 244.917,83.1239 245.584,83.4573 246.5,83.5C 248.5,83 250.5,82.5 252.5,82C 253.337,80.9887 253.67,79.8221 253.5,78.5C 251.486,78.3915 249.82,79.0582 248.5,80.5C 247.833,79.8333 247.167,79.1667 246.5,78.5C 248.681,78.7163 250.347,77.883 251.5,76C 250.589,73.5852 248.922,72.0852 246.5,71.5C 245.167,70.8333 245.167,70.1667 246.5,69.5C 249.407,70.7341 251.741,72.7341 253.5,75.5C 259.481,72.3743 263.315,67.7076 265,61.5C 264.283,62.0442 263.783,62.7109 263.5,63.5C 262.833,63.5 262.5,63.1667 262.5,62.5C 266.013,58.0966 267.18,53.0966 266,47.5C 265.392,49.1545 264.892,50.8211 264.5,52.5C 263.833,52.5 263.5,52.1667 263.5,51.5C 264.014,49.4884 264.18,47.4884 264,45.5C 262.577,48.5918 260.243,50.5918 257,51.5C 255.142,57.0148 251.308,59.3481 245.5,58.5C 243.973,58.573 242.973,57.9063 242.5,56.5C 243.31,53.7298 244.977,51.5631 247.5,50C 251.951,49.8702 256.284,49.2036 260.5,48C 261.833,46 263.167,44 264.5,42C 262.655,40.872 260.655,40.372 258.5,40.5C 259.609,39.71 260.942,39.21 262.5,39C 261.262,38.31 261.262,37.81 262.5,37.5C 263.117,37.6107 263.617,37.944 264,38.5C 264.409,36.3049 263.909,34.3049 262.5,32.5C 262.5,31.8333 262.833,31.5 263.5,31.5C 263.5,32.1667 263.833,32.5 264.5,32.5C 264.932,33.7095 265.599,34.7095 266.5,35.5C 267.833,34.8333 268.833,33.8333 269.5,32.5C 270.167,32.5 270.5,32.8333 270.5,33.5C 269.19,35.1477 267.857,36.8144 266.5,38.5C 271.903,54.5871 267.903,67.5871 254.5,77.5C 254.865,78.9019 255.699,79.9019 257,80.5C 258.798,79.4962 260.632,78.9962 262.5,79C 260.664,80.419 258.664,81.5857 256.5,82.5C 255.534,84.396 255.201,86.396 255.5,88.5C 257.5,88.5 259.5,88.5 261.5,88.5C 259.167,89.1667 256.833,89.8333 254.5,90.5C 250.612,92.8289 250.778,95.1622 255,97.5C 255.667,98.1667 255.667,98.8333 255,99.5C 249.539,93.3704 244.372,93.8704 239.5,101C 233.138,103.942 228.138,102.442 224.5,96.5C 222.535,95.7078 220.535,95.0412 218.5,94.5C 216.684,95.8149 215.017,97.3149 213.5,99C 212.833,99.6667 212.167,99.6667 211.5,99C 213.351,97.3163 215.018,95.4829 216.5,93.5C 215.452,92.452 214.452,91.452 213.5,90.5C 211.167,89.8333 208.833,89.1667 206.5,88.5C 212.655,89.3857 213.988,87.3857 210.5,82.5C 203.879,78.9666 204.046,78.3 211,80.5C 212.301,79.9019 213.135,78.9019 213.5,77.5C 203.602,71.7064 198.935,63.0398 199.5,51.5C 199.792,46.4913 200.126,41.4913 200.5,36.5C 200.5,36.1667 200.5,35.8333 200.5,35.5C 201.461,33.7354 201.795,31.7354 201.5,29.5 Z"/></g>
<g><path style="opacity:1" fill="#efefef" d="M 263.5,51.5 C 260.044,60.5061 254.044,62.8394 245.5,58.5C 251.308,59.3481 255.142,57.0148 257,51.5C 260.243,50.5918 262.577,48.5918 264,45.5C 264.18,47.4884 264.014,49.4884 263.5,51.5 Z"/></g>
<g><path style="opacity:1" fill="#e8e8e8" d="M 202.5,44.5 C 206.8,48.9936 211.133,53.4936 215.5,58C 224.585,58.4385 224.585,59.6052 215.5,61.5C 209.753,60.9173 205.92,57.9173 204,52.5C 203.178,49.8832 202.678,47.2165 202.5,44.5 Z"/></g>
<g><path style="opacity:1" fill="#f4f4f4" d="M 258.5,40.5 C 260.655,40.372 262.655,40.872 264.5,42C 263.167,44 261.833,46 260.5,48C 256.284,49.2036 251.951,49.8702 247.5,50C 244.977,51.5631 243.31,53.7298 242.5,56.5C 240.663,44.3358 245.997,39.0025 258.5,40.5 Z"/></g>
<g><path style="opacity:1" fill="#efefef" d="M 239.5,55.5 C 237.856,53.5193 236.19,51.5193 234.5,49.5C 234.863,48.8165 235.196,48.1499 235.5,47.5C 237.293,45.5739 238.293,43.2406 238.5,40.5C 240.308,40.4914 241.975,40.9914 243.5,42C 242.54,43.4194 241.707,44.9194 241,46.5C 240.819,49.6946 240.319,52.6946 239.5,55.5 Z"/></g>
<g><path style="opacity:1" fill="#eaeaea" d="M 226.5,54.5 C 228.228,49.8468 227.228,45.6801 223.5,42C 224.416,41.7216 225.082,41.2216 225.5,40.5C 226.583,40.4606 227.583,40.1272 228.5,39.5C 229.295,43.0837 230.628,46.417 232.5,49.5C 231.272,52.2376 229.438,54.5709 227,56.5C 226.536,55.9056 226.369,55.2389 226.5,54.5 Z"/></g>
<g><path style="opacity:1" fill="#f7f7f7" d="M 207.5,40.5 C 211.182,40.3347 214.848,40.5014 218.5,41C 224.322,43.1386 226.655,47.3053 225.5,53.5C 225.631,54.2389 225.464,54.9056 225,55.5C 223.833,53 222,51.1667 219.5,50C 210.828,51.9672 205.494,48.8005 203.5,40.5C 204.833,40.5 206.167,40.5 207.5,40.5 Z"/></g>
<g><path style="opacity:1" fill="#eeeeee" d="M 234.5,46.5 C 230.744,44.0857 229.744,40.7524 231.5,36.5C 232.315,35.5707 233.148,34.5707 234,33.5C 237.148,37.7065 237.314,42.0398 234.5,46.5 Z"/></g>
<g><path style="opacity:1" fill="#f2f2f2" d="M 245.5,33.5 C 250.971,32.5933 255.971,34.0933 260.5,38C 256.514,38.4988 252.514,38.6655 248.5,38.5C 248.727,36.0672 247.727,34.4006 245.5,33.5 Z"/></g>
<g><path style="opacity:1" fill="#f1f1f1" d="M 215.5,32.5 C 217.857,32.3367 220.19,32.5034 222.5,33C 220.787,34.3782 219.453,36.0448 218.5,38C 214.5,38.6667 210.5,38.6667 206.5,38C 209.564,36.1412 212.564,34.3079 215.5,32.5 Z"/></g>
<g><path style="opacity:1" fill="#f3f3f3" d="M 235.5,33.5 C 240.955,31.2235 244.955,32.8902 247.5,38.5C 242.124,40.1454 238.124,38.4787 235.5,33.5 Z"/></g>
<g><path style="opacity:1" fill="#f1f1f1" d="M 230.5,35.5 C 229.198,37.8218 227.198,39.1551 224.5,39.5C 223.022,39.762 221.689,39.4287 220.5,38.5C 222.349,32.8091 226.016,31.1425 231.5,33.5C 231.137,34.1835 230.804,34.8501 230.5,35.5 Z"/></g>
<g><path style="opacity:1" fill="#cccccc" d="M 248.5,50.5 C 252.161,50.3501 253.161,51.8501 251.5,55C 246.503,55.7871 245.503,54.2871 248.5,50.5 Z"/></g>
<g><path style="opacity:1" fill="#7c7c7c" d="M 232.5,67.5 C 232.818,62.9677 232.485,58.6344 231.5,54.5C 231.783,53.7109 232.283,53.0442 233,52.5C 233.816,57.6842 233.65,62.6842 232.5,67.5 Z"/></g>
<g><path style="opacity:1" fill="#2c2c2c" d="M 248.5,52.5 C 250.337,52.6395 250.67,53.3061 249.5,54.5C 248.702,54.0431 248.369,53.3764 248.5,52.5 Z"/></g>
<g><path style="opacity:1" fill="#eaeaea" d="M 262.5,62.5 C 257.031,66.6496 251.697,66.4829 246.5,62C 255.097,63.9286 261.097,60.762 264.5,52.5C 264.892,50.8211 265.392,49.1545 266,47.5C 267.18,53.0966 266.013,58.0966 262.5,62.5 Z"/></g>
<g><path style="opacity:1" fill="#c7c7c7" d="M 215.5,51.5 C 216.859,52.0065 217.859,53.0065 218.5,54.5C 218.998,53.3966 219.331,52.3966 219.5,51.5C 221.265,55.0144 220.265,56.5144 216.5,56C 215.62,54.6439 215.286,53.1439 215.5,51.5 Z"/></g>
<g><path style="opacity:1" fill="#f7f7f7" d="M 231.5,54.5 C 232.485,58.6344 232.818,62.9677 232.5,67.5C 231.542,68.9616 230.376,70.2949 229,71.5C 228.833,70.6667 228.667,69.8333 228.5,69C 228.887,63.8978 229.887,59.0644 231.5,54.5 Z"/></g>
<g><path style="opacity:1" fill="#ececec" d="M 237.5,60.5 C 238.423,64.0641 238.756,67.7307 238.5,71.5C 236.827,70.657 235.66,69.3237 235,67.5C 234.333,62.5 234.333,57.5 235,52.5C 237.203,54.6688 238.036,57.3354 237.5,60.5 Z"/></g>
<g><path style="opacity:1" fill="#e3e3e3" d="M 201.5,52.5 C 205.103,59.8108 211.103,63.3108 219.5,63C 215.51,67.2109 211.176,67.5443 206.5,64C 203.594,60.6894 201.927,56.856 201.5,52.5 Z"/></g>
<g><path style="opacity:1" fill="#e2e2e2" d="M 226.5,58.5 C 227.625,63.7027 227.458,69.036 226,74.5C 225,75.5 224,76.5 223,77.5C 222.752,70.8398 223.919,64.5064 226.5,58.5 Z"/></g>
<g><path style="opacity:1" fill="#e3e3e3" d="M 244.5,68.5 C 245.444,71.9988 245.444,75.3322 244.5,78.5C 240.992,75.7173 239.658,72.0506 240.5,67.5C 239.624,64.2011 239.457,60.8678 240,57.5C 240.667,58.1667 241.333,58.8333 242,59.5C 242.841,62.6282 243.675,65.6282 244.5,68.5 Z"/></g>
<g><path style="opacity:1" fill="#ebebeb" d="M 246.5,69.5 C 246.167,68.8333 245.833,68.1667 245.5,67.5C 245.185,65.7741 245.019,64.1075 245,62.5C 250.92,68.7646 257.087,69.0979 263.5,63.5C 263.783,62.7109 264.283,62.0442 265,61.5C 263.315,67.7076 259.481,72.3743 253.5,75.5C 251.741,72.7341 249.407,70.7341 246.5,69.5 Z"/></g>
<g><path style="opacity:1" fill="#f0f0f0" d="M 203.5,63.5 C 209.597,68.8068 215.764,68.8068 222,63.5C 222.167,64.3333 222.333,65.1667 222.5,66C 220.078,69.4287 217.244,72.5953 214,75.5C 209.208,72.5469 205.708,68.5469 203.5,63.5 Z"/></g>
<g><path style="opacity:1" fill="#f1f1f1" d="M 244.5,79.5 C 237.944,79.448 231.277,79.7813 224.5,80.5C 223.475,80.1034 223.308,79.4368 224,78.5C 227.145,75.2659 230.478,72.2659 234,69.5C 237.369,73.0374 240.869,76.3707 244.5,79.5 Z"/></g>
<g><path style="opacity:1" fill="#e2e2e2" d="M 220.5,70.5 C 221.532,73.134 221.199,75.8007 219.5,78.5C 218.098,78.1345 217.098,77.3012 216.5,76C 217.65,74.019 218.984,72.1857 220.5,70.5 Z"/></g>
<g><path style="opacity:1" fill="#080808" d="M 245.5,67.5 C 245.833,68.1667 246.167,68.8333 246.5,69.5C 245.167,70.1667 245.167,70.8333 246.5,71.5C 246.5,73.8333 246.5,76.1667 246.5,78.5C 247.167,79.1667 247.833,79.8333 248.5,80.5C 247.167,81.1667 245.833,81.8333 244.5,82.5C 243.889,84.7111 242.556,86.3777 240.5,87.5C 238.456,88.0312 236.789,89.1978 235.5,91C 236.527,91.5133 237.527,92.0133 238.5,92.5C 238.5,93.1667 238.167,93.5 237.5,93.5C 235.565,92.8505 233.565,92.5172 231.5,92.5C 231.5,92.1667 231.5,91.8333 231.5,91.5C 230.249,88.5114 228.249,87.5114 225.5,88.5C 224.888,85.3027 222.888,83.9694 219.5,84.5C 218.833,84.5 218.167,84.5 217.5,84.5C 217.5,84.1667 217.5,83.8333 217.5,83.5C 219.415,83.7845 221.081,83.4511 222.5,82.5C 223.167,81.8333 223.833,81.1667 224.5,80.5C 231.277,79.7813 237.944,79.448 244.5,79.5C 244.5,79.1667 244.5,78.8333 244.5,78.5C 245.444,75.3322 245.444,71.9988 244.5,68.5C 244.5,67.8333 244.833,67.5 245.5,67.5 Z"/></g>
<g><path style="opacity:1" fill="#d9d9d9" d="M 246.5,71.5 C 248.922,72.0852 250.589,73.5852 251.5,76C 250.347,77.883 248.681,78.7163 246.5,78.5C 246.5,76.1667 246.5,73.8333 246.5,71.5 Z"/></g>
<g><path style="opacity:1" fill="#dddddd" d="M 222.5,82.5 C 221.081,83.4511 219.415,83.7845 217.5,83.5C 215.958,82.8592 214.624,81.8592 213.5,80.5C 213.887,79.2801 214.72,78.6135 216,78.5C 218.262,79.7125 220.429,81.0459 222.5,82.5 Z"/></g>
<g><path style="opacity:1" fill="#e8e8e8" d="M 244.5,82.5 C 245.833,81.8333 247.167,81.1667 248.5,80.5C 249.82,79.0582 251.486,78.3915 253.5,78.5C 253.67,79.8221 253.337,80.9887 252.5,82C 250.5,82.5 248.5,83 246.5,83.5C 245.584,83.4573 244.917,83.1239 244.5,82.5 Z"/></g>
<g><path style="opacity:1" fill="#ececec" d="M 217.5,84.5 C 218.167,84.5 218.833,84.5 219.5,84.5C 220.263,85.2679 221.263,85.7679 222.5,86C 219.607,87.1488 216.607,87.6488 213.5,87.5C 213.5,86.1667 213.5,84.8333 213.5,83.5C 214.959,83.4326 216.292,83.7659 217.5,84.5 Z"/></g>
<g><path style="opacity:1" fill="#e4e4e4" d="M 250.5,83.5 C 251.833,83.5 253.167,83.5 254.5,83.5C 254.845,86.488 253.512,87.8213 250.5,87.5C 248.423,87.3078 246.423,86.8078 244.5,86C 246.611,85.1553 248.611,84.322 250.5,83.5 Z"/></g>
<g><path style="opacity:1" fill="#e3e3e3" d="M 231.5,91.5 C 228.179,94.2199 224.512,94.8866 220.5,93.5C 222.006,91.5986 223.673,89.9319 225.5,88.5C 228.249,87.5114 230.249,88.5114 231.5,91.5 Z"/></g>
<g><path style="opacity:1" fill="#e5e5e5" d="M 240.5,87.5 C 242.814,89.4773 245.147,91.4773 247.5,93.5C 244.317,94.8027 241.317,94.4694 238.5,92.5C 237.527,92.0133 236.527,91.5133 235.5,91C 236.789,89.1978 238.456,88.0312 240.5,87.5 Z"/></g>
<g><path style="opacity:1" fill="#717171" d="M 206.5,88.5 C 208.833,89.1667 211.167,89.8333 213.5,90.5C 210.753,90.8134 208.086,90.48 205.5,89.5C 205.624,88.8933 205.957,88.56 206.5,88.5 Z"/></g>
<g><path style="opacity:1" fill="#efefef" d="M 218.5,88.5 C 219.873,88.3433 221.207,88.51 222.5,89C 220.137,92.2519 217.804,92.5853 215.5,90C 216.737,89.7679 217.737,89.2679 218.5,88.5 Z"/></g>
<g><path style="opacity:1" fill="#dcdcdc" d="M 243.5,88.5 C 243.56,87.9569 243.893,87.6236 244.5,87.5C 247.07,88.6343 249.736,89.4677 252.5,90C 251.646,91.0217 250.646,91.8551 249.5,92.5C 247.754,90.7484 245.754,89.4151 243.5,88.5 Z"/></g>
<g><path style="opacity:1" fill="#777777" d="M 261.5,88.5 C 262.043,88.56 262.376,88.8933 262.5,89.5C 259.914,90.48 257.247,90.8134 254.5,90.5C 256.833,89.8333 259.167,89.1667 261.5,88.5 Z"/></g>
<g><path style="opacity:1" fill="#f3f3f3" d="M 231.5,92.5 C 233.565,92.5172 235.565,92.8505 237.5,93.5C 238.765,94.4793 240.099,95.4793 241.5,96.5C 236.101,101.903 230.768,101.737 225.5,96C 227.879,95.2838 229.879,94.1172 231.5,92.5 Z"/></g>
<g><path style="opacity:1" fill="#9e9e9e" d="M 107.5,134.5 C 106.167,133.167 104.833,133.167 103.5,134.5C 102.624,134.631 101.957,134.298 101.5,133.5C 104.167,132.167 106.833,132.167 109.5,133.5C 109.043,134.298 108.376,134.631 107.5,134.5 Z"/></g>
<g><path style="opacity:1" fill="#a8a8a8" d="M 270.5,134.5 C 266.833,133.167 263.167,133.167 259.5,134.5C 258.624,134.631 257.957,134.298 257.5,133.5C 262.167,132.167 266.833,132.167 271.5,133.5C 271.376,134.107 271.043,134.44 270.5,134.5 Z"/></g>
<g><path style="opacity:1" fill="#ababab" d="M 331.5,133.5 C 327.298,133.183 323.298,133.517 319.5,134.5C 318.624,134.631 317.957,134.298 317.5,133.5C 322.318,132.188 326.985,132.188 331.5,133.5 Z"/></g>
<g><path style="opacity:1" fill="#a8a8a8" d="M 432.5,134.5 C 428.833,133.167 425.167,133.167 421.5,134.5C 420.624,134.631 419.957,134.298 419.5,133.5C 424.167,132.167 428.833,132.167 433.5,133.5C 433.376,134.107 433.043,134.44 432.5,134.5 Z"/></g>
<g><path style="opacity:1" fill="#373737" d="M 35.5,134.5 C 36.964,133.84 38.6307,133.507 40.5,133.5C 47.6951,133.866 49.3618,137.199 45.5,143.5C 51.7099,147.586 52.0433,152.086 46.5,157C 42.5,157.667 38.5,157.667 34.5,157C 35.7916,153.429 36.4583,149.595 36.5,145.5C 36.4987,141.651 36.1654,137.984 35.5,134.5 Z"/></g>
<g><path style="opacity:1" fill="#414141" d="M 103.5,134.5 C 104.833,133.167 106.167,133.167 107.5,134.5C 107.334,141.508 107.5,148.508 108,155.5C 111.249,157.117 113.916,156.451 116,153.5C 116.49,154.793 116.657,156.127 116.5,157.5C 111.489,157.666 106.489,157.499 101.5,157C 102.416,156.626 103.25,156.126 104,155.5C 104.821,148.321 104.655,141.321 103.5,134.5 Z"/></g>
<g><path style="opacity:1" fill="#4f4f4f" d="M 270.5,134.5 C 270.541,138.243 269.874,138.41 268.5,135C 266.866,134.506 265.199,134.34 263.5,134.5C 263.5,137.5 263.5,140.5 263.5,143.5C 265.792,143.756 267.959,143.423 270,142.5C 270.667,144.167 270.667,145.833 270,147.5C 268.211,145.771 266.044,145.104 263.5,145.5C 263.5,148.833 263.5,152.167 263.5,155.5C 266.394,155.958 268.894,155.291 271,153.5C 271.49,154.793 271.657,156.127 271.5,157.5C 266.821,157.666 262.155,157.499 257.5,157C 259.444,149.778 260.111,142.278 259.5,134.5C 263.167,133.167 266.833,133.167 270.5,134.5 Z"/></g>
<g><path style="opacity:1" fill="#3b3b3b" d="M 319.5,134.5 C 323.298,133.517 327.298,133.183 331.5,133.5C 331.217,134.289 330.717,134.956 330,135.5C 327.959,134.577 325.792,134.244 323.5,134.5C 323.5,137.5 323.5,140.5 323.5,143.5C 325.833,143.5 328.167,143.5 330.5,143.5C 330.657,144.873 330.49,146.207 330,147.5C 328.246,145.75 326.079,145.083 323.5,145.5C 323.5,148.833 323.5,152.167 323.5,155.5C 326.685,155.98 329.519,155.314 332,153.5C 332.684,154.784 332.517,155.951 331.5,157C 327.167,157.667 322.833,157.667 318.5,157C 319.792,153.429 320.458,149.595 320.5,145.5C 320.499,141.651 320.165,137.984 319.5,134.5 Z"/></g>
<g><path style="opacity:1" fill="#3c3c3c" d="M 382.5,134.5 C 383.919,133.549 385.585,133.216 387.5,133.5C 389.359,139.91 391.526,146.243 394,152.5C 397.269,146.524 399.436,140.191 400.5,133.5C 401.873,133.343 403.207,133.51 404.5,134C 400.733,141.808 397.066,149.641 393.5,157.5C 390.058,149.621 386.392,141.954 382.5,134.5 Z"/></g>
<g><path style="opacity:1" fill="#4f4f4f" d="M 432.5,134.5 C 432.541,138.243 431.874,138.41 430.5,135C 428.866,134.506 427.199,134.34 425.5,134.5C 425.5,137.5 425.5,140.5 425.5,143.5C 427.792,143.756 429.959,143.423 432,142.5C 432.667,144.167 432.667,145.833 432,147.5C 430.211,145.771 428.044,145.104 425.5,145.5C 425.5,148.833 425.5,152.167 425.5,155.5C 428.394,155.958 430.894,155.291 433,153.5C 433.49,154.793 433.657,156.127 433.5,157.5C 428.821,157.666 424.155,157.499 419.5,157C 421.444,149.778 422.111,142.278 421.5,134.5C 425.167,133.167 428.833,133.167 432.5,134.5 Z"/></g>
<g><path style="opacity:1" fill="#f4f4f4" d="M 39.5,134.5 C 43.2947,133.959 45.2947,135.625 45.5,139.5C 44.8641,142.794 42.8641,144.127 39.5,143.5C 39.5,140.5 39.5,137.5 39.5,134.5 Z"/></g>
<g><path style="opacity:1" fill="#414141" d="M 188.5,132.5 C 189.748,133.334 190.415,134.667 190.5,136.5C 191.151,142.858 191.984,149.192 193,155.5C 193.75,156.126 194.584,156.626 195.5,157C 193.527,157.495 191.527,157.662 189.5,157.5C 189.418,151.766 188.752,146.099 187.5,140.5C 184.656,146.189 181.822,151.856 179,157.5C 175.73,151.96 172.73,146.293 170,140.5C 169.573,144.676 169.073,148.842 168.5,153C 168.675,154.658 169.342,155.991 170.5,157C 168.5,157.667 166.5,157.667 164.5,157C 165,156.5 165.5,156 166,155.5C 166.622,148.057 167.789,140.724 169.5,133.5C 172.833,139.5 176.167,145.5 179.5,151.5C 183.314,145.539 186.314,139.206 188.5,132.5 Z"/></g>
<g><path style="opacity:1" fill="#434343" d="M 292.5,132.5 C 295.167,132.5 297.833,132.5 300.5,132.5C 300.66,134.199 300.494,135.866 300,137.5C 298.695,134.694 296.528,133.86 293.5,135C 292.426,135.739 291.759,136.739 291.5,138C 294.548,141.607 297.714,145.107 301,148.5C 302.173,152.305 301.007,155.139 297.5,157C 294.518,157.498 291.518,157.665 288.5,157.5C 288.338,155.473 288.505,153.473 289,151.5C 289.748,155.914 292.248,157.414 296.5,156C 298.984,153.716 299.151,151.216 297,148.5C 289.211,144.659 287.711,139.326 292.5,132.5 Z"/></g>
<g><path style="opacity:1" fill="#444444" d="M 139.5,132.5 C 143.121,139.492 146.287,146.826 149,154.5C 149.903,155.701 151.069,156.535 152.5,157C 150.19,157.497 147.857,157.663 145.5,157.5C 145.791,149.063 142.291,146.73 135,150.5C 134.5,152 134,153.5 133.5,155C 133.905,155.945 134.572,156.612 135.5,157C 133.167,157.667 130.833,157.667 128.5,157C 130.333,156.5 131.5,155.333 132,153.5C 134.517,146.475 137.017,139.475 139.5,132.5 Z"/></g>
<g><path style="opacity:1" fill="#eaeaea" d="M 138.5,139.5 C 139.376,139.369 140.043,139.702 140.5,140.5C 143.961,145.546 142.627,147.379 136.5,146C 137.669,143.993 138.335,141.827 138.5,139.5 Z"/></g>
<g><path style="opacity:1" fill="#f2f2f2" d="M 39.5,144.5 C 46.0953,145.25 48.4286,148.75 46.5,155C 44.3763,156.582 42.2096,156.749 40,155.5C 39.5014,151.848 39.3347,148.182 39.5,144.5 Z"/></g>
<g><path style="opacity:1" fill="#3c3c3c" d="M 223.5,134.5 C 227.769,133.109 232.102,133.276 236.5,135C 238.237,139.283 237.57,143.117 234.5,146.5C 237.147,151.653 241.147,155.153 246.5,157C 244.167,157.667 241.833,157.667 239.5,157C 236.6,154.603 234.267,151.77 232.5,148.5C 230.955,147.548 229.288,147.215 227.5,147.5C 227.5,150.5 227.5,153.5 227.5,156.5C 229.044,157.728 227.377,157.894 222.5,157C 223.792,153.429 224.458,149.595 224.5,145.5C 224.499,141.651 224.165,137.984 223.5,134.5 Z"/></g>
<g><path style="opacity:1" fill="#fafafa" d="M 227.5,134.5 C 232.173,133.98 234.507,135.98 234.5,140.5C 234.449,142.1 234.116,143.6 233.5,145C 231.527,145.495 229.527,145.662 227.5,145.5C 227.5,141.833 227.5,138.167 227.5,134.5 Z"/></g>
<g><path style="opacity:1" fill="#4c4c4c" d="M 350.5,133.5 C 354.182,133.335 357.848,133.501 361.5,134C 365.232,137.978 365.232,142.145 361.5,146.5C 364.052,151.22 367.718,154.72 372.5,157C 370.167,157.667 367.833,157.667 365.5,157C 363.167,154 360.833,151 358.5,148C 357.207,147.51 355.873,147.343 354.5,147.5C 353.989,151.03 354.656,154.196 356.5,157C 353.833,157.667 351.167,157.667 348.5,157C 350.447,149.442 351.114,141.609 350.5,133.5 Z"/></g>
<g><path style="opacity:1" fill="#ededed" d="M 353.5,134.5 C 361.302,134.787 363.302,138.287 359.5,145C 357.527,145.495 355.527,145.662 353.5,145.5C 353.5,141.833 353.5,138.167 353.5,134.5 Z"/></g>
<g><path style="opacity:1" fill="#434343" d="M 74.5,132.5 C 75.4972,132.47 76.1639,132.97 76.5,134C 79.3333,141.167 82.1667,148.333 85,155.5C 85.7504,156.126 86.5838,156.626 87.5,157C 85.5273,157.495 83.5273,157.662 81.5,157.5C 80.8333,154.5 80.1667,151.5 79.5,148.5C 71.6046,146.565 68.6046,149.398 70.5,157C 68.1667,157.667 65.8333,157.667 63.5,157C 64.9308,156.535 66.0975,155.701 67,154.5C 69.8076,147.243 72.3076,139.91 74.5,132.5 Z"/></g>
<g><path style="opacity:1" fill="#ededed" d="M 74.5,138.5 C 76.2671,140.792 77.2671,143.458 77.5,146.5C 75.8333,146.5 74.1667,146.5 72.5,146.5C 72.9628,143.779 73.6295,141.112 74.5,138.5 Z"/></g>
</svg>
